<svg width="17" height="17" viewBox="0 0 17 17" fill="none" xmlns="http://www.w3.org/2000/svg">
<path id="Vector" fill-rule="evenodd" clip-rule="evenodd" d="M8.5 17C10.7543 17 12.9163 16.1045 14.5104 14.5104C16.1045 12.9163 17 10.7543 17 8.5C17 6.24566 16.1045 4.08365 14.5104 2.48959C12.9163 0.895533 10.7543 0 8.5 0C6.24566 0 4.08365 0.895533 2.48959 2.48959C0.895533 4.08365 0 6.24566 0 8.5C0 10.7543 0.895533 12.9163 2.48959 14.5104C4.08365 16.1045 6.24566 17 8.5 17ZM9.5625 4.25C9.5625 3.96821 9.45056 3.69796 9.2513 3.4987C9.05204 3.29944 8.78179 3.1875 8.5 3.1875C8.21821 3.1875 7.94796 3.29944 7.7487 3.4987C7.54944 3.69796 7.4375 3.96821 7.4375 4.25V8.5C7.43756 8.78177 7.54954 9.05198 7.74881 9.25119L10.7536 12.257C10.8523 12.3557 10.9695 12.434 11.0985 12.4874C11.2274 12.5409 11.3657 12.5684 11.5053 12.5684C11.6449 12.5684 11.7831 12.5409 11.9121 12.4874C12.0411 12.434 12.1583 12.3557 12.257 12.257C12.3557 12.1583 12.434 12.0411 12.4874 11.9121C12.5409 11.7831 12.5684 11.6449 12.5684 11.5053C12.5684 11.3657 12.5409 11.2274 12.4874 11.0985C12.434 10.9695 12.3557 10.8523 12.257 10.7536L9.5625 8.06013V4.25Z" fill="black"/>
</svg>
