<svg width="35" height="42" viewBox="0 0 35 42" fill="none" xmlns="http://www.w3.org/2000/svg">
<path fill-rule="evenodd" clip-rule="evenodd" d="M5.12595 5.09545C8.4078 1.83289 12.8589 0 17.5002 0C22.1414 0 26.5926 1.83289 29.8744 5.09545C33.1563 8.35802 35 12.783 35 17.397C35 22.0109 33.1563 26.4359 29.8744 29.6985L17.5002 42L5.12595 29.6985C3.50083 28.0831 2.21171 26.1653 1.3322 24.0546C0.452682 21.9439 0 19.6816 0 17.397C0 15.1123 0.452682 12.8501 1.3322 10.7394C2.21171 8.62866 3.50083 6.71085 5.12595 5.09545ZM17.5002 22.3673C18.8262 22.3673 20.0979 21.8436 21.0355 20.9115C21.9731 19.9794 22.4999 18.7152 22.4999 17.397C22.4999 16.0788 21.9731 14.8145 21.0355 13.8824C20.0979 12.9503 18.8262 12.4267 17.5002 12.4267C16.1742 12.4267 14.9025 12.9503 13.9649 13.8824C13.0272 14.8145 12.5005 16.0788 12.5005 17.397C12.5005 18.7152 13.0272 19.9794 13.9649 20.9115C14.9025 21.8436 16.1742 22.3673 17.5002 22.3673Z" fill="#E56447"/>
</svg>
