<svg width="32" height="32" viewBox="0 0 32 32" fill="none" xmlns="http://www.w3.org/2000/svg">
<path id="Vector (Stroke)" fill-rule="evenodd" clip-rule="evenodd" d="M16 3.2C12.6052 3.2 9.3495 4.54857 6.94903 6.94903C4.54857 9.3495 3.2 12.6052 3.2 16C3.2 17.6809 3.53108 19.3454 4.17434 20.8983C4.8176 22.4513 5.76044 23.8624 6.94903 25.051C8.13762 26.2396 9.54869 27.1824 11.1017 27.8257C12.6546 28.4689 14.3191 28.8 16 28.8C17.6809 28.8 19.3454 28.4689 20.8983 27.8257C22.4513 27.1824 23.8624 26.2396 25.051 25.051C26.2396 23.8624 27.1824 22.4513 27.8257 20.8983C28.4689 19.3454 28.8 17.6809 28.8 16C28.8 12.6052 27.4514 9.3495 25.051 6.94903C22.6505 4.54857 19.3948 3.2 16 3.2ZM4.68629 4.68629C7.68687 1.68571 11.7565 0 16 0C20.2435 0 24.3131 1.68571 27.3137 4.68629C30.3143 7.68687 32 11.7565 32 16C32 18.1011 31.5861 20.1817 30.7821 22.1229C29.978 24.0641 28.7994 25.828 27.3137 27.3137C25.828 28.7994 24.0641 29.978 22.1229 30.7821C20.1817 31.5861 18.1011 32 16 32C13.8989 32 11.8183 31.5861 9.87707 30.7821C7.93585 29.978 6.17203 28.7994 4.68629 27.3137C3.20055 25.828 2.022 24.0641 1.21793 22.1229C0.413852 20.1817 0 18.1012 0 16C9.53674e-08 11.7565 1.68571 7.68687 4.68629 4.68629ZM16 8C16.8837 8 17.6 8.71634 17.6 9.6V15.3373L21.9314 19.6686C22.5562 20.2935 22.5562 21.3065 21.9314 21.9314C21.3065 22.5562 20.2935 22.5562 19.6686 21.9314L14.8686 17.1314C14.5686 16.8313 14.4 16.4243 14.4 16V9.6C14.4 8.71634 15.1163 8 16 8Z" fill="black"/>
</svg>
